PathFileType	4	(X/Y/Z)	./resultDataOpenSim/trcMotMarkerGrf/sub06/qtm-15-06.trc
DataRate	CameraRate	NumFrames	NumMarkers	Units	OrigDataRate	OrigDataStartFrame	OrigNumFrames
250.000000	250.000000	12	24	m	250.000000	269	536
Frame#	Time	L.Toe.Tip			R.Toe.Tip			L.Ankle.Lat			R.Ankle.Lat			L.Ankle.Med			R.Ankle.Med			L.Heel			R.Heel			L.Knee.Lat			R.Knee.Lat			L.Knee.Med			R.Knee.Med			L.Thigh.Upper			R.Thigh.Upper			L.ASIS			R.ASIS			V.Sacral			L.Acromium			R.Acromium			C7			L.Elbow			R.Elbow			L.Wrist.Lat			R.Wrist.Lat
		X1	Y1	Z1	X2	Y2	Z2	X3	Y3	Z3	X4	Y4	Z4	X5	Y5	Z5	X6	Y6	Z6	X7	Y7	Z7	X8	Y8	Z8	X9	Y9	Z9	X10	Y10	Z10	X11	Y11	Z11	X12	Y12	Z12	X13	Y13	Z13	X14	Y14	Z14	X15	Y15	Z15	X16	Y16	Z16	X17	Y17	Z17	X18	Y18	Z18	X19	Y19	Z19	X20	Y20	Z20	X21	Y21	Z21	X22	Y22	Z22	X23	Y23	Z23	X24	Y24	Z24

269	1.072	0.058452726	-0.063810377	0.01753279	0.91885579	0.087054764	0.10188982	-0.0047639584	0.025792935	-0.047368358	0.77950661	0.084934203	0.12730868	-0.0056968321	0.051357825	0.034868192	0.79388859	0.11381862	0.041676022	-0.08265767	0.050710525	-0.013733679	0.7356523	0.051106859	0.065157784	0.2184115	0.33348829	-0.069337752	0.69952822	0.46558822	0.14934174	0.20704015	0.34301357	0.051657073	0.67678975	0.44480263	0.027758076	0.32291171	0.6973369	-0.1378293	0.44259039	0.72382479	0.19979528	0.42007035	0.74357304	-0.12161003	0.50321281	0.76577966	0.11578319	0.2872367	0.8332784	0.050752846	0.49619113	1.2402089	-0.12752071	0.45128519	1.2028183	0.22621146	0.39922858	1.2655335	0.041912436	0.60338376	0.93506951	-0.213971	0.2234462	1.0037362	0.26488422	0.82790135	0.98084016	-0.10762934	0.14775197	0.80772872	0.37740174
270	1.076	0.058841678	-0.063741673	0.017562375	0.92065141	0.080248625	0.10003954	-0.0016105611	0.027100738	-0.047732247	0.78208975	0.07871357	0.12574468	-0.0016714121	0.052647768	0.034449032	0.79586961	0.107923	0.040496922	-0.078678161	0.053861686	-0.013666319	0.73729035	0.045527363	0.063991453	0.22554015	0.33227864	-0.070070786	0.70579632	0.46130353	0.14772752	0.21528864	0.34154595	0.050920192	0.68240682	0.44134888	0.026261398	0.33020416	0.69649592	-0.13757491	0.45236259	0.72311059	0.19910314	0.42764336	0.74275103	-0.12194926	0.51255515	0.76464448	0.11473835	0.29624182	0.83223337	0.051444394	0.50359985	1.2398993	-0.1264032	0.45976479	1.2014377	0.22698405	0.40706123	1.2646448	0.043366144	0.61167531	0.93512394	-0.2131951	0.23169295	1.0028061	0.26505108	0.83546136	0.98219052	-0.10562933	0.15586665	0.8066426	0.37723269
271	1.08	0.059263038	-0.063686214	0.017612855	0.92227993	0.07303358	0.098145014	0.001708713	0.028376728	-0.04815311	0.78425501	0.072278836	0.12442526	0.0025545755	0.053916172	0.033991847	0.7975518	0.10170845	0.039356445	-0.074437926	0.057035465	-0.013630865	0.73857206	0.039935822	0.062945529	0.23282491	0.33099489	-0.07087043	0.71185828	0.45679443	0.14610771	0.22362786	0.3399577	0.050173739	0.68791626	0.43754376	0.024797512	0.33758936	0.69562487	-0.13734286	0.46215453	0.72234141	0.19831625	0.43523595	0.7419292	-0.12227313	0.52198746	0.76350101	0.11364647	0.30505883	0.83130988	0.052153427	0.51098813	1.2396001	-0.1252432	0.46827398	1.200088	0.22775817	0.41496223	1.2636769	0.044758636	0.61982807	0.93514154	-0.21244745	0.24004548	1.0018641	0.26522619	0.84292801	0.98339619	-0.10367049	0.16412546	0.80547159	0.37707236
272	1.084	0.059704638	-0.0636662	0.017660015	0.92431479	0.06516813	0.096282279	0.0051496236	0.029665348	-0.048642356	0.78627491	0.065960161	0.12325422	0.0069887047	0.05514519	0.033489092	0.79944965	0.095355526	0.037962079	-0.069915585	0.060213251	-0.013631455	0.73975773	0.035234574	0.06186616	0.24028354	0.32962259	-0.071724403	0.71763947	0.45193657	0.14456438	0.23207556	0.33817985	0.049472391	0.69324056	0.43330315	0.023359176	0.34506791	0.69472267	-0.13711749	0.47191631	0.72148387	0.19739138	0.44288918	0.74110154	-0.12259713	0.53145633	0.7623534	0.11250485	0.31334143	0.83075075	0.052869713	0.51834852	1.2392946	-0.12405775	0.47683218	1.1987784	0.22853765	0.42288123	1.2626442	0.046104131	0.62784908	0.93510495	-0.21172415	0.24851518	1.0009063	0.26541416	0.85030499	0.98445336	-0.10175563	0.17245962	0.80421405	0.37691127
273	1.088	0.060169673	-0.063716365	0.017658707	0.92767519	0.056657233	0.094707918	0.0086326415	0.031014633	-0.049181289	0.78884612	0.060517664	0.12201235	0.011633254	0.056309871	0.032936419	0.80249266	0.089266072	0.036045652	-0.065095218	0.063369175	-0.013669522	0.74150633	0.032556834	0.060618404	0.24791899	0.32815334	-0.072636666	0.72303046	0.44655239	0.14320828	0.24065839	0.3362283	0.04874114	0.69825997	0.42850999	0.022018222	0.35264335	0.69378973	-0.13687383	0.4816434	0.72048897	0.19631276	0.45066447	0.74024949	-0.12295142	0.54081287	0.76119432	0.11128968	0.32129055	0.83050293	0.05347192	0.5256773	1.2389605	-0.12285895	0.48545014	1.1975064	0.22931779	0.43078946	1.2615557	0.047421568	0.63575947	0.93503765	-0.21105101	0.25707299	0.99992346	0.265622	0.8575893	0.98536588	-0.099881134	0.18090572	0.80287014	0.37676114
274	1.092	0.060679289	-0.063865869	0.017580879	0.93287166	0.048324923	0.093752072	0.012151171	0.032420123	-0.04973996	0.79281328	0.056862927	0.12050587	0.01648467	0.057400663	0.032331848	0.80741179	0.083975515	0.033618636	-0.059980271	0.066506689	-0.013758007	0.74437316	0.032395723	0.059324119	0.2557237	0.32659255	-0.073625641	0.72805788	0.44070478	0.14206512	0.24939512	0.33413789	0.047889713	0.70292113	0.42303754	0.020976701	0.36032366	0.6928172	-0.13656928	0.49138187	0.71930353	0.19513237	0.45859127	0.73935462	-0.1233461	0.54983934	0.76001108	0.10996271	0.3298096	0.83011544	0.053651483	0.53297567	1.2385795	-0.12164668	0.49412061	1.1962605	0.2300868	0.43868646	1.2604081	0.048714399	0.64358163	0.93498001	-0.21047057	0.26568249	0.9989139	0.26585367	0.86477477	0.98613826	-0.098045268	0.18951818	0.80144609	0.37663977
275	1.096	0.061244511	-0.064109821	0.017447762	0.93890165	0.041799624	0.093392662	0.015821823	0.033823672	-0.050317897	0.79838489	0.055299971	0.1188648	0.021535881	0.058445393	0.031668495	0.81360439	0.079889113	0.031037269	-0.054604618	0.069704322	-0.013926643	0.74799632	0.034006948	0.058304266	0.26369144	0.32494714	-0.074712269	0.7331119	0.43512439	0.14096266	0.25829151	0.33190685	0.046905894	0.70730612	0.41686607	0.020510532	0.36811384	0.69178221	-0.1361622	0.50113447	0.71791332	0.19395381	0.46664155	0.73840951	-0.12374823	0.55834015	0.75880421	0.1084884	0.33930262	0.82931167	0.053376025	0.54024167	1.238149	-0.12042419	0.50283098	1.1950282	0.23083684	0.44658367	1.259199	0.049974803	0.65132159	0.93494088	-0.21000372	0.27433434	0.99788117	0.26611525	0.87186107	0.98676846	-0.096249586	0.1983202	0.79995157	0.37655675
276	1.1	0.061856425	-0.064391892	0.017294456	0.94360103	0.038222745	0.092992333	0.019764589	0.03520687	-0.050939975	0.80457855	0.055135667	0.11761185	0.026772421	0.059521982	0.030934671	0.81901123	0.077182084	0.028782268	-0.049028663	0.073088799	-0.014210131	0.75115357	0.035900123	0.057749131	0.27181798	0.32321462	-0.075908397	0.73898849	0.43125516	0.13961862	0.26737266	0.32950749	0.045815617	0.71162444	0.41035737	0.0208014	0.37600028	0.69066213	-0.13566563	0.51077668	0.71642702	0.19290066	0.47475549	0.73741781	-0.12410092	0.56622821	0.75760453	0.10687154	0.34888696	0.82840392	0.053204756	0.54746745	1.2376839	-0.11921087	0.51157718	1.1937975	0.23156442	0.45449049	1.2579374	0.051197162	0.65897197	0.93489215	-0.20965043	0.28303604	0.99682193	0.26641897	0.87885195	0.98725593	-0.094499216	0.2073051	0.7983933	0.37651441
277	1.104	0.062533699	-0.064605134	0.017120793	0.94581414	0.037080982	0.091892383	0.023980141	0.036650846	-0.051608848	0.80965425	0.055344618	0.11715721	0.032168677	0.060746572	0.030123075	0.82184477	0.075931604	0.0272003	-0.043273872	0.076723515	-0.014640089	0.75287854	0.03697655	0.057643218	0.28010913	0.32139399	-0.077215921	0.74655753	0.43046098	0.13788001	0.27674071	0.32692313	0.044577464	0.71612257	0.40455917	0.021706399	0.38393981	0.68946066	-0.13518417	0.52011479	0.71514603	0.19211076	0.48286731	0.73639192	-0.1243365	0.57356076	0.75647189	0.10519991	0.35759117	0.82780383	0.053706846	0.55464605	1.2372092	-0.11803324	0.52036541	1.1925556	0.23226236	0.4624047	1.2566482	0.052388094	0.6665243	0.93480152	-0.2094094	0.29179763	0.99572436	0.26677447	0.88574926	0.98761269	-0.092803685	0.21646171	0.79677276	0.3765143
278	1.108	0.063368763	-0.064617102	0.016897072	0.94636275	0.036917498	0.090258262	0.028397272	0.038283935	-0.052294518	0.81225188	0.055581778	0.11724724	0.03770153	0.062229298	0.029239821	0.82216578	0.076044722	0.026394553	-0.037276891	0.080560244	-0.015244584	0.75329155	0.037160071	0.057865161	0.28860598	0.31950152	-0.078628007	0.75628182	0.43295619	0.13575763	0.28654526	0.32417818	0.043079161	0.72096491	0.40100065	0.022629661	0.39188144	0.68821284	-0.13487378	0.52902319	0.71449964	0.1917027	0.4908689	0.73534882	-0.12435603	0.58051892	0.75547222	0.10363283	0.36541806	0.82759716	0.054820304	0.56177958	1.2367464	-0.11691313	0.52920673	1.1912919	0.23291987	0.47031202	1.2553676	0.053560704	0.67397047	0.93465758	-0.20927228	0.30062607	0.99457774	0.26718335	0.89255495	0.98785604	-0.091174172	0.22579621	0.79508827	0.37656181
279	1.112	0.064482824	-0.064331397	0.016589538	0.94650979	0.036803611	0.088892687	0.03298888	0.040205257	-0.052972649	0.81233818	0.056339072	0.11718739	0.043375352	0.064015896	0.028311398	0.82143802	0.077081063	0.026224467	-0.030975755	0.084530099	-0.016014641	0.75322568	0.037028854	0.058191252	0.29738615	0.31756533	-0.080124039	0.76789126	0.43765867	0.13328015	0.29681751	0.32134442	0.04129694	0.72622403	0.40070993	0.022744502	0.39980439	0.68696256	-0.13483777	0.53751007	0.71479792	0.1917167	0.49855949	0.73430823	-0.12402405	0.58733567	0.75464721	0.10232488	0.37284367	0.82772088	0.056000589	0.56888215	1.2363028	-0.11586772	0.53810643	1.1900029	0.23352736	0.47819313	1.2541356	0.054718289	0.68129919	0.93446319	-0.20922569	0.30951815	0.99337588	0.26764103	0.89927418	0.98799476	-0.08962153	0.23532311	0.79333734	0.3766671
280	1.116	0.06592587	-0.063749705	0.016165632	0.94672754	0.036613957	0.088293038	0.037805215	0.042445585	-0.053643529	0.81111641	0.058117396	0.1165727	0.049230741	0.066059425	0.027385274	0.82107144	0.07846326	0.026405919	-0.024389077	0.088618714	-0.016865702	0.75333536	0.037065305	0.058429699	0.30652749	0.31560944	-0.081679305	0.78030427	0.44306244	0.130515	0.30738519	0.31851039	0.039390425	0.73196551	0.40340806	0.021506213	0.40771553	0.68575057	-0.13505453	0.54563044	0.71597095	0.1920799	0.50576141	0.73329412	-0.12327046	0.59420594	0.75399951	0.1013535	0.38011606	0.82810975	0.056747488	0.57597314	1.2358715	-0.11490977	0.5470569	1.1886989	0.23407956	0.4860346	1.252993	0.05585132	0.68850122	0.93421352	-0.20926819	0.31846381	0.99211236	0.26814312	0.9059086	0.98803184	-0.088151079	0.24504529	0.79151373	0.3768404
